<?xml version="1.0" encoding="UTF-8" standalone="no"?><!DOCTYPE svg PUBLIC "-//W3C//DTD SVG 1.1//EN" "http://www.w3.org/Graphics/SVG/1.1/DTD/svg11.dtd"><svg width="1477" height="1279" viewBox="0 0 1477 1279" version="1.1" xmlns="http://www.w3.org/2000/svg" xmlns:xlink="http://www.w3.org/1999/xlink" xml:space="preserve" xmlns:serif="http://www.serif.com/" style="fill-rule:evenodd;clip-rule:evenodd;stroke-linejoin:round;stroke-miterlimit:2;"><path id="dreiecke" d="M1107.28,639.318l184.594,319.659l184.501,319.567l-738.19,0l184.594,-319.567l184.501,-319.659Zm-738.189,0l184.501,319.659l184.593,319.567l-738.189,0l184.501,-319.567l184.594,-319.659Zm369.094,-639.318l184.594,319.659l184.501,319.659l-738.189,0l184.501,-319.659l184.593,-319.659Z" style="fill-rule:nonzero;"/><path id="letterD" d="M961.201,891.238l176.551,-0l12.7,0.192l6.126,0.288l6.035,0.384l5.765,0.481l5.675,0.672l5.494,0.673l5.405,0.864l5.134,0.865l5.045,1.057l4.864,1.153l4.774,1.249l4.594,1.441l4.413,1.441l4.234,1.633l4.144,1.633l3.963,1.826l3.873,1.921l3.783,2.018l3.694,2.113l7.206,4.42l3.423,2.401l3.332,2.498l3.333,2.594l3.153,2.594l3.153,2.786l2.972,2.882l2.973,2.979l2.792,2.978l2.792,3.17l5.225,6.533l4.864,6.917l4.504,7.11l2.162,3.651l1.982,3.746l1.981,3.843l1.802,3.843l1.801,3.939l1.712,3.939l3.062,8.262l1.441,4.131l2.523,8.647l1.171,4.419l1.081,4.419l0.99,4.42l0.901,4.419l0.811,4.516l0.81,4.611l0.721,4.515l0.541,4.612l0.63,4.707l0.45,4.612l0.361,4.707l0.36,4.804l0.27,4.708l0.181,4.803l0.18,9.704l-0.09,7.589l-0.18,7.302l-0.271,7.205l-0.36,6.821l-0.541,6.725l-0.54,6.437l-0.721,6.341l-0.81,6.053l-0.991,5.764l-0.991,5.668l-1.171,5.38l-1.261,5.188l-1.351,4.996l-1.532,4.707l-1.621,4.612l-1.711,4.323l-1.712,4.131l-1.891,4.131l-1.982,3.939l-2.072,3.939l-2.072,3.843l-2.252,3.747l-2.342,3.651l-2.342,3.554l-2.522,3.555l-2.522,3.363l-2.702,3.362l-2.702,3.17l-2.793,3.171l-2.972,3.074l-2.973,2.978l-3.062,2.883l-3.153,2.786l-3.153,2.69l-6.305,4.995l-3.243,2.306l-3.333,2.21l-3.243,2.017l-3.332,2.018l-3.423,1.825l-3.333,1.73l-3.423,1.633l-3.423,1.441l-3.513,1.345l-3.513,1.249l-3.513,1.153l-3.513,0.96l-4.864,1.345l-4.864,1.153l-9.368,2.114l-4.684,0.961l-4.594,0.864l-4.504,0.769l-4.414,0.672l-4.413,0.577l-4.324,0.576l-8.558,0.769l-4.143,0.288l-4.144,0.192l-8.016,0.192l-176.551,0l0,-382.175Zm118.811,86.561l0,208.765l33.689,-0l4.414,-0.096l8.287,-0.384l3.963,-0.289l3.693,-0.384l3.604,-0.384l3.332,-0.481l3.243,-0.576l3.063,-0.576l2.882,-0.673l2.703,-0.769l2.612,-0.768l2.342,-0.865l2.252,-0.96l2.071,-0.961l1.892,-1.057l1.892,-1.249l1.801,-1.249l1.802,-1.345l1.711,-1.441l1.712,-1.537l1.621,-1.633l1.531,-1.73l3.063,-3.843l1.351,-2.017l1.351,-2.114l1.351,-2.209l1.261,-2.306l1.171,-2.402l1.171,-2.594l1.081,-2.594l0.991,-2.882l0.901,-3.074l0.901,-3.171l0.81,-3.458l0.721,-3.651l0.631,-3.843l0.63,-4.131l0.541,-4.227l0.45,-4.419l0.36,-4.708l0.271,-4.804l0.27,-5.091l0.18,-5.188l0.09,-5.476l-0,-13.066l-0.27,-7.11l-0.361,-6.821l-0.54,-6.629l-0.721,-6.148l-0.9,-5.957l-0.451,-2.882l-0.54,-2.786l-0.541,-2.69l-0.63,-2.69l-1.261,-4.996l-0.721,-2.402l-0.811,-2.401l-1.621,-4.42l-0.901,-2.114l-0.901,-2.017l-0.9,-1.921l-0.991,-1.922l-1.081,-1.825l-1.081,-1.73l-1.081,-1.633l-1.171,-1.633l-1.171,-1.537l-1.171,-1.441l-1.261,-1.345l-1.351,-1.345l-1.441,-1.249l-1.352,-1.249l-1.531,-1.249l-1.531,-1.153l-1.531,-1.057l-1.622,-1.153l-1.711,-0.96l-1.712,-1.057l-1.801,-0.865l-1.892,-0.961l-1.892,-0.864l-1.891,-0.769l-1.982,-0.768l-2.072,-0.769l-2.071,-0.672l-4.324,-1.153l-2.252,-0.577l-4.684,-0.96l-4.864,-0.769l-5.044,-0.672l-5.225,-0.385l-5.494,-0.288l-5.675,-0.096l-29.636,-0Z" style="fill:#fff;"/><path id="letterE" d="M225.152,891.165l287.977,-0l0,81.635l-180.251,-0l0,60.893l167.224,0l0,77.924l-167.224,0l0,75.356l185.518,-0l-0,86.678l-293.244,-0l0,-382.486Z" style="fill:#fff;"/><path id="letterQ" d="M898.758,571.158l5.451,3.788l4.897,3.418l8.5,5.728l3.418,2.31l3.049,1.94l2.494,1.478l1.94,1.201l2.772,1.571l2.957,1.57l3.141,1.571l3.418,1.663l7.576,3.603l4.065,1.848l4.343,1.847l-33.815,68.274l-6.375,-3.141l-6.375,-3.326l-6.374,-3.418l-6.375,-3.603l-6.283,-3.788l-6.282,-3.88l-6.283,-4.065l-6.19,-4.158l-6.005,-4.157l-5.543,-3.88l-5.082,-3.604l-4.619,-3.325l-4.158,-3.049l-3.695,-2.864l-3.142,-2.495l-2.679,-2.309l-5.174,2.125l-5.266,1.94l-5.451,1.847l-5.543,1.756l-5.821,1.57l-5.912,1.386l-6.006,1.294l-6.282,1.201l-6.375,1.016l-6.56,0.831l-6.744,0.739l-6.837,0.647l-7.022,0.462l-7.206,0.37l-7.391,0.184l-7.484,0.093l-11.086,-0.185l-10.81,-0.554l-5.266,-0.462l-5.174,-0.462l-10.163,-1.294l-4.989,-0.739l-4.896,-0.924l-4.804,-0.923l-4.805,-1.109l-4.712,-1.109l-4.527,-1.201l-4.619,-1.386l-4.435,-1.385l-4.342,-1.479l-4.342,-1.57l-4.25,-1.755l-4.158,-1.756l-4.065,-1.848l-4.065,-2.032l-3.973,-2.033l-3.788,-2.124l-3.88,-2.218l-3.696,-2.309l-7.206,-4.989l-3.511,-2.587l-3.418,-2.679l-3.326,-2.772l-3.326,-2.956l-3.788,-3.419l-3.603,-3.603l-3.511,-3.695l-3.418,-3.788l-3.326,-3.788l-3.142,-3.973l-3.048,-4.065l-2.957,-4.065l-2.772,-4.25l-2.679,-4.249l-2.587,-4.343l-2.494,-4.526l-2.31,-4.527l-2.217,-4.62l-2.125,-4.712l-1.94,-4.896l-1.848,-4.897l-1.756,-4.988l-1.57,-5.082l-1.571,-5.173l-1.293,-5.174l-1.294,-5.359l-1.108,-5.45l-1.017,-5.544l-0.924,-5.543l-0.831,-5.728l-0.647,-5.82l-0.462,-5.821l-0.462,-6.005l-0.277,-6.005l-0.185,-6.19l-0.092,-6.19l0.185,-12.01l0.277,-5.821l0.369,-5.82l0.462,-5.636l0.647,-5.635l0.647,-5.543l0.739,-5.451l0.924,-5.359l1.016,-5.266l1.109,-5.173l1.201,-5.082l1.293,-5.081l1.386,-4.896l3.141,-9.609l1.756,-4.711l1.847,-4.527l1.941,-4.527l2.032,-4.435l2.125,-4.342l2.31,-4.25l2.31,-4.157l2.494,-4.158l2.587,-3.972l2.587,-3.881l2.772,-3.88l5.913,-7.391l3.048,-3.603l3.234,-3.511l3.326,-3.418l3.418,-3.326l3.419,-3.141l3.603,-3.141l3.603,-2.957l3.696,-2.864l3.88,-2.864l3.88,-2.679l3.973,-2.494l4.065,-2.495l4.158,-2.402l4.157,-2.217l4.343,-2.217l4.342,-2.033l4.527,-1.94l4.527,-1.848l4.619,-1.755l4.712,-1.571l4.805,-1.57l4.896,-1.386l4.989,-1.294l5.082,-1.201l5.081,-1.108l5.266,-1.016l5.266,-0.924l5.359,-0.739l5.543,-0.74l5.544,-0.554l5.635,-0.462l5.729,-0.369l5.728,-0.277l5.913,-0.185l12.102,-0l6.006,0.185l5.82,0.277l5.913,0.369l5.728,0.462l5.636,0.554l5.543,0.647l5.451,0.739l10.717,1.848l5.174,1.109l5.174,1.201l4.989,1.293l4.989,1.386l4.804,1.478l4.805,1.571l4.712,1.663l4.619,1.847l4.435,1.848l4.434,2.033l4.343,2.125l4.249,2.217l4.158,2.31l4.065,2.402l4.065,2.494l3.881,2.679l3.788,2.68l3.788,2.863l3.603,2.957l3.51,2.956l3.511,3.141l3.419,3.234l3.233,3.418l3.142,3.419l3.141,3.51l2.956,3.603l2.864,3.696l2.772,3.788l2.679,3.788l2.495,3.972l2.494,4.065l2.31,4.158l4.435,8.499l2.032,4.435l1.848,4.434l1.848,4.62l1.755,4.619l3.141,9.608l1.386,4.989l1.294,4.989l1.201,5.082l1.108,5.266l0.924,5.266l0.924,5.358l0.832,5.451l0.646,5.543l0.555,5.636l0.462,5.728l0.369,5.82l0.277,5.913l0.185,6.005l0,11.548l-0.369,10.625l-0.278,5.174l-0.369,5.173l-0.462,5.082l-0.554,4.989l-0.647,4.988l-1.478,9.609l-0.924,4.804l-0.924,4.619l-1.109,4.619l-1.108,4.527l-1.201,4.527l-1.294,4.343l-1.386,4.342l-1.478,4.25l-1.571,4.249l-1.663,4.065l-1.755,4.065l-1.755,3.973l-1.941,3.973l-1.94,3.88l-2.032,3.788l-2.125,3.695l-2.218,3.603l-2.309,3.604l-2.402,3.51l-2.495,3.419l-2.587,3.418l-2.587,3.326Zm-93.313,-62.361l1.756,-3.326l1.663,-3.603l1.57,-3.696l1.386,-3.973l1.294,-4.157l1.201,-4.342l1.108,-4.62l1.016,-4.711l0.832,-4.989l0.739,-5.174l0.647,-5.358l0.462,-5.636l0.369,-5.728l0.37,-6.005l0.185,-12.565l-0.093,-7.298l-0.277,-7.114l-0.369,-6.744l-0.37,-3.326l-0.277,-3.234l-0.739,-6.19l-0.462,-3.049l-0.555,-2.956l-1.108,-5.728l-0.647,-2.772l-0.647,-2.679l-0.739,-2.679l-0.739,-2.494l-1.663,-4.989l-1.848,-4.62l-0.924,-2.217l-1.016,-2.125l-1.109,-2.125l-1.108,-2.032l-1.109,-1.94l-1.201,-1.941l-1.201,-1.847l-1.294,-1.756l-1.293,-1.663l-1.386,-1.663l-1.386,-1.57l-4.434,-4.435l-3.049,-2.679l-3.234,-2.494l-1.663,-1.201l-1.755,-1.109l-1.663,-1.016l-1.848,-1.017l-1.755,-1.016l-1.848,-0.924l-3.696,-1.663l-1.94,-0.739l-2.032,-0.739l-1.941,-0.647l-2.032,-0.646l-2.033,-0.555l-2.125,-0.554l-4.25,-0.924l-2.217,-0.369l-6.744,-0.832l-2.402,-0.092l-2.31,-0.185l-2.402,-0.092l-4.712,-0l-2.217,0.092l-6.468,0.554l-2.125,0.278l-6.19,1.108l-2.032,0.554l-1.94,0.462l-5.821,1.941l-3.695,1.478l-1.848,0.831l-1.756,0.924l-1.847,0.924l-1.663,1.016l-1.756,1.016l-1.663,1.109l-1.663,1.201l-1.663,1.109l-1.663,1.293l-1.571,1.294l-1.57,1.385l-1.478,1.386l-2.957,2.957l-1.478,1.57l-2.864,3.234l-3.88,5.266l-2.403,3.88l-1.108,1.94l-1.016,2.125l-1.109,2.125l-0.924,2.125l-1.016,2.217l-0.832,2.31l-0.924,2.309l-0.739,2.403l-0.831,2.494l-0.739,2.494l-1.294,5.174l-0.554,2.772l-0.555,2.679l-0.554,2.864l-0.462,2.864l-0.739,5.82l-0.37,3.049l-0.554,6.282l-0.185,3.142l-0.277,6.651l-0.092,6.745l0.092,7.945l0.277,7.576l0.185,3.695l0.554,7.206l0.278,3.419l0.369,3.418l0.462,3.326l0.37,3.234l0.554,3.141l1.109,6.097l0.646,2.957l0.647,2.864l0.739,2.771l1.478,5.359l0.832,2.587l0.924,2.494l0.924,2.402l0.924,2.31l1.016,2.309l1.109,2.218l1.108,2.125l1.109,2.032l2.402,3.88l2.587,3.511l1.386,1.663l2.771,3.141l2.957,2.957l1.478,1.385l1.571,1.386l1.57,1.294l4.989,3.603l1.663,1.108l3.511,2.033l1.848,0.924l3.696,1.663l1.94,0.831l1.94,0.739l1.94,0.647l4.065,1.293l2.033,0.462l2.125,0.555l2.125,0.369l2.125,0.462l4.434,0.554l2.31,0.278l2.217,0.184l4.712,0.185l5.451,0l6.005,-0.369l5.821,-0.555l5.728,-0.924l2.772,-0.554l-2.033,-1.848l-2.125,-1.847l-2.217,-1.756l-2.402,-1.847l-2.495,-1.756l-2.679,-1.848l-2.864,-1.755l-2.956,-1.755l-6.283,-3.419l-3.418,-1.755l-3.511,-1.663l-7.391,-3.418l-3.881,-1.663l-4.065,-1.663l19.032,-43.792l3.881,0.739l3.695,0.832l3.511,0.831l3.234,0.924l3.049,0.924l2.771,1.016l2.587,1.017l2.402,1.016l2.495,1.293l3.049,1.756l3.603,2.125l4.065,2.679l4.619,2.956l5.267,3.511l5.635,3.88l6.283,4.435l1.57,1.016l1.663,1.109l1.571,1.108l3.326,2.218l5.266,3.326Z" style="fill:#fff;"/></svg>
